<svg xmlns="http://www.w3.org/2000/svg" viewBox="0 0 760 330" width="760" height="330" font-family="Source Sans Pro, Source Sans 3, Arial, sans-serif">
<rect width="760" height="330" fill="white"/>
<rect x="140" y="190" width="480" height="70" fill="#d9dcde" stroke="#2E3639" stroke-width="1.5"/>
<text x="200.0" y="286" text-anchor="middle" font-size="14" fill="#2E3639">Element 1</text>
<text x="320.0" y="286" text-anchor="middle" font-size="14" fill="#2E3639">Element 2</text>
<text x="440.0" y="286" text-anchor="middle" font-size="14" fill="#2E3639">Element 3</text>
<text x="560.0" y="286" text-anchor="middle" font-size="14" fill="#2E3639">Element 4</text>
<line x1="140.0" y1="190" x2="140.0" y2="260" stroke="#2E3639" stroke-width="1.5"/>
<circle cx="140.0" cy="225.0" r="7" fill="#009EE3" stroke="white" stroke-width="2"/>
<text x="149.0" y="207.0" font-size="14" font-weight="600" fill="#022541">T<tspan baseline-shift="sub" font-size="10">1</tspan></text>
<line x1="140.0" y1="49.19999999999999" x2="140.0" y2="190" stroke="#009EE3" stroke-dasharray="3 4" opacity="0.6"/>
<line x1="260.0" y1="190" x2="260.0" y2="260" stroke="#2E3639" stroke-width="1.5"/>
<circle cx="260.0" cy="225.0" r="7" fill="#009EE3" stroke="white" stroke-width="2"/>
<text x="269.0" y="207.0" font-size="14" font-weight="600" fill="#022541">T<tspan baseline-shift="sub" font-size="10">2</tspan></text>
<line x1="260.0" y1="74.39999999999999" x2="260.0" y2="190" stroke="#009EE3" stroke-dasharray="3 4" opacity="0.6"/>
<line x1="380.0" y1="190" x2="380.0" y2="260" stroke="#2E3639" stroke-width="1.5"/>
<circle cx="380.0" cy="225.0" r="7" fill="#009EE3" stroke="white" stroke-width="2"/>
<text x="389.0" y="207.0" font-size="14" font-weight="600" fill="#022541">T<tspan baseline-shift="sub" font-size="10">3</tspan></text>
<line x1="380.0" y1="99.6" x2="380.0" y2="190" stroke="#009EE3" stroke-dasharray="3 4" opacity="0.6"/>
<line x1="500.0" y1="190" x2="500.0" y2="260" stroke="#2E3639" stroke-width="1.5"/>
<circle cx="500.0" cy="225.0" r="7" fill="#009EE3" stroke="white" stroke-width="2"/>
<text x="509.0" y="207.0" font-size="14" font-weight="600" fill="#022541">T<tspan baseline-shift="sub" font-size="10">4</tspan></text>
<line x1="500.0" y1="124.8" x2="500.0" y2="190" stroke="#009EE3" stroke-dasharray="3 4" opacity="0.6"/>
<line x1="620.0" y1="190" x2="620.0" y2="260" stroke="#2E3639" stroke-width="1.5"/>
<circle cx="620.0" cy="225.0" r="7" fill="#009EE3" stroke="white" stroke-width="2"/>
<text x="629.0" y="207.0" font-size="14" font-weight="600" fill="#022541">T<tspan baseline-shift="sub" font-size="10">5</tspan></text>
<line x1="620.0" y1="150.0" x2="620.0" y2="190" stroke="#009EE3" stroke-dasharray="3 4" opacity="0.6"/>
<polyline points="140.0,49.19999999999999 260.0,74.39999999999999 380.0,99.6 500.0,124.8 620.0,150.0" fill="none" stroke="#E53009" stroke-width="2.5"/>
<circle cx="140.0" cy="49.19999999999999" r="4.5" fill="#E53009"/>
<circle cx="260.0" cy="74.39999999999999" r="4.5" fill="#E53009"/>
<circle cx="380.0" cy="99.6" r="4.5" fill="#E53009"/>
<circle cx="500.0" cy="124.8" r="4.5" fill="#E53009"/>
<circle cx="620.0" cy="150.0" r="4.5" fill="#E53009"/>
<text x="638" y="155.0" font-size="14" fill="#E53009">T(x)</text>
<text x="124" y="230.0" text-anchor="end" font-size="14" fill="#022541">innen</text>
<text x="636" y="230.0" font-size="14" fill="#022541">außen</text>
<text x="380.0" y="316" text-anchor="middle" font-size="13" fill="#2E3639">Unbekannt ist je Knoten nur ein Wert: die Temperatur. Dazwischen wird linear (oder quadratisch) interpoliert.</text>
</svg>
