<svg xmlns="http://www.w3.org/2000/svg" viewBox="0 0 880 420" width="880" height="420" font-family="Source Sans Pro, Source Sans 3, Arial, sans-serif">
<rect width="880" height="420" fill="white"/>
<defs><marker id="pf" viewBox="0 0 10 10" refX="9" refY="5" markerWidth="7" markerHeight="7" orient="auto-start-reverse"><path d="M0,0 L10,5 L0,10 z" fill="#E53009"/></marker><marker id="pm" viewBox="0 0 10 10" refX="9" refY="5" markerWidth="6" markerHeight="6" orient="auto-start-reverse"><path d="M0,0 L10,5 L0,10 z" fill="#2E3639"/></marker><pattern id="eps" width="14" height="14" patternUnits="userSpaceOnUse"><circle cx="7" cy="7" r="3" fill="none" stroke="#009EE3" stroke-width="1" opacity="0.5"/></pattern></defs>
<rect x="290.0" y="70" width="300" height="260" fill="#e8c9b8" stroke="#2E3639" stroke-width="1.5"/>
<text x="440.0" y="190.0" text-anchor="middle" font-size="15" font-weight="600" fill="#022541">Vollziegel</text>
<text x="440.0" y="214.0" text-anchor="middle" font-size="14" fill="#2E3639">λ = 0,68</text>
<text x="440.0" y="232.0" text-anchor="middle" font-size="14" fill="#2E3639">W/(m·K)</text>
<line x1="290.0" y1="336" x2="290.0" y2="364" stroke="#2E3639"/>
<line x1="590.0" y1="336" x2="590.0" y2="364" stroke="#2E3639"/>
<line x1="293.0" y1="358" x2="587.0" y2="358" stroke="#2E3639" marker-start="url(#pm)" marker-end="url(#pm)"/>
<text x="440.0" y="380" text-anchor="middle" font-size="14" fill="#2E3639">365 mm</text>
<text x="170.0" y="40" text-anchor="middle" font-size="16" font-weight="700" fill="#022541">innen</text>
<text x="710.0" y="40" text-anchor="middle" font-size="16" font-weight="700" fill="#022541">außen</text>
<text x="272.0" y="90" text-anchor="end" font-size="15" fill="#E53009" font-weight="600">Luft 20 °C</text>
<text x="272.0" y="112" text-anchor="end" font-size="15" fill="#E53009">h = 7,7 W/(m²·K)</text>
<path d="M268.0,320 C262.0,280 274.0,240 268.0,200" fill="none" stroke="#E53009" stroke-width="1.5" opacity="0.6" marker-end="url(#pm)"/>
<path d="M254.0,320 C248.0,280 260.0,240 254.0,200" fill="none" stroke="#E53009" stroke-width="1.5" opacity="0.6" marker-end="url(#pm)"/>
<path d="M240.0,320 C234.0,280 246.0,240 240.0,200" fill="none" stroke="#E53009" stroke-width="1.5" opacity="0.6" marker-end="url(#pm)"/>
<text x="608.0" y="90" text-anchor="start" font-size="15" fill="#009EE3" font-weight="600">Luft −10 °C</text>
<text x="608.0" y="112" text-anchor="start" font-size="15" fill="#009EE3">h = 25 W/(m²·K)</text>
<path d="M612.0,320 C618.0,280 606.0,240 612.0,200" fill="none" stroke="#009EE3" stroke-width="1.5" opacity="0.6" marker-end="url(#pm)"/>
<path d="M626.0,320 C632.0,280 620.0,240 626.0,200" fill="none" stroke="#009EE3" stroke-width="1.5" opacity="0.6" marker-end="url(#pm)"/>
<path d="M640.0,320 C646.0,280 634.0,240 640.0,200" fill="none" stroke="#009EE3" stroke-width="1.5" opacity="0.6" marker-end="url(#pm)"/>
<line x1="300.0" y1="275.0" x2="580.0" y2="275.0" stroke="#E53009" stroke-width="2.5" marker-end="url(#pf)"/>
<text x="440.0" y="297.0" text-anchor="middle" font-size="15" font-style="italic" fill="#E53009">q̇</text>
<text x="440.0" y="412" text-anchor="middle" font-size="13" fill="#2E3639">Wandausschnitt 1 m × 1 m (Schnitt)</text>
</svg>
